# xmcd CD database file
#
# Track frame offsets:
#	150
#	17028
#	36028
#	49775
#	68868
#	82925
#	96043
#	113883
#	131298
#	146445
#
# Disc length: 2189 seconds
#
# Revision: 1
# Processed by: cddbd v1.5.2PL0 Copyright (c) Steve Scherf et al.
# Submitted via: CDex 1.70beta2
#
DISCID=79088b0a
DTITLE=カーペンターズ - 愛のハーモニー　カーペンターズ　ﾍﾞｽﾄ　１０
DYEAR=1900
DGENRE=Pop
TTITLE0=ジャンバラヤ
TTITLE1=オンリー・イエスタディ
TTITLE2=トップ・オブ・ザ・ワールド
TTITLE3=涙の乗車券
TTITLE4=愛のプレリュード
TTITLE5=プリーズ・ミスター・ポストマン
TTITLE6=遥かなる影
TTITLE7=スーパー・スター
TTITLE8=シング
TTITLE9=イエスタディ・ワンス・モア
EXTD=
EXTT0=
EXTT1=
EXTT2=
EXTT3=
EXTT4=
EXTT5=
EXTT6=
EXTT7=
EXTT8=
EXTT9=
PLAYORDER=
